<?xml version="1.0" standalone="no"?>
<!DOCTYPE svg PUBLIC "-//W3C//DTD SVG 20010904//EN"
 "http://www.w3.org/TR/2001/REC-SVG-20010904/DTD/svg10.dtd">
<svg version="1.0" xmlns="http://www.w3.org/2000/svg"
 width="500.000000pt" height="237.000000pt" viewBox="0 0 500.000000 237.000000"
 preserveAspectRatio="xMidYMid meet">

<g transform="translate(0.000000,237.000000) scale(0.100000,-0.100000)"
fill="#000000" stroke="none">
<path d="M865 2173 c-53 -11 -135 -47 -135 -59 0 -23 17 -24 61 -5 24 11 83
25 131 32 76 10 95 10 164 -7 43 -10 84 -25 91 -33 7 -9 26 -30 42 -48 36 -40
50 -116 27 -142 -31 -34 -10 -84 39 -92 22 -4 60 -74 69 -128 4 -24 -1 -41
-15 -61 -20 -27 -21 -29 -4 -65 18 -35 17 -38 -3 -88 -26 -62 -26 -63 -7 -71
17 -6 55 59 55 95 0 11 13 33 30 47 22 19 30 35 30 59 0 18 9 47 20 65 25 41
25 58 2 58 -12 0 -25 -15 -36 -41 -10 -22 -20 -38 -23 -35 -3 3 -9 25 -14 50
-5 25 -17 63 -27 85 -11 22 -18 42 -15 44 10 11 97 -32 104 -51 4 -11 18 -27
30 -36 30 -20 41 -106 28 -204 -11 -78 -9 -88 15 -79 21 8 30 82 24 195 -3 57
-1 103 5 113 17 27 -1 70 -33 82 -17 6 -30 15 -30 20 0 20 -92 137 -140 177
-27 23 -50 50 -50 61 0 10 -12 26 -26 36 -21 13 -32 14 -54 6 -22 -8 -40 -7
-82 8 -50 17 -215 25 -273 12z m408 -57 c3 -8 0 -22 -7 -32 -18 -24 -46 -11
-46 21 0 20 5 25 24 25 13 0 26 -6 29 -14z m73 -113 c51 -49 114 -133 114
-152 0 -14 2 -14 -51 4 -58 20 -103 68 -117 127 -21 85 -16 87 54 21z m-32
-112 c11 -18 -6 -41 -30 -41 -19 0 -24 5 -24 25 0 20 5 25 24 25 14 0 27 -4
30 -9z"/>
<path d="M622 2098 c-7 -7 -12 -20 -12 -30 0 -10 -24 -48 -53 -83 -80 -96
-137 -230 -137 -318 0 -16 -7 -35 -15 -43 -18 -18 -20 -65 -3 -82 7 -7 24 -12
40 -12 18 0 44 -15 80 -47 70 -62 91 -97 98 -163 4 -42 9 -56 23 -58 16 -3 17
2 11 47 -4 28 -3 51 2 51 5 0 26 -18 47 -40 22 -21 47 -42 58 -45 10 -4 19
-11 19 -16 0 -5 7 -9 15 -9 21 0 39 -43 31 -74 -4 -16 -16 -28 -31 -32 -43
-11 -72 3 -92 43 -15 33 -23 38 -55 41 -33 3 -43 11 -85 67 -26 35 -60 95 -74
132 -15 37 -35 69 -43 71 -41 9 57 -199 123 -262 20 -19 31 -40 31 -56 0 -40
28 -61 73 -53 26 4 43 1 55 -9 9 -8 43 -25 75 -38 78 -31 167 -116 204 -195
25 -53 28 -71 28 -160 0 -92 -3 -106 -30 -159 -76 -150 -236 -234 -395 -207
-87 14 -131 34 -197 89 -94 78 -148 228 -124 345 24 114 76 192 171 257 77 52
88 85 51 147 -44 71 -130 46 -246 -71 -116 -117 -165 -236 -165 -396 0 -158
53 -284 165 -395 112 -112 238 -165 395 -165 103 0 181 19 270 66 166 87 268
238 293 432 22 169 -37 333 -167 468 -26 26 -136 104 -148 104 -25 0 -138 63
-175 98 -37 34 -43 45 -43 80 0 48 -24 68 -72 58 -25 -5 -38 1 -79 35 -36 30
-49 48 -49 67 0 14 -10 36 -22 49 l-21 23 21 86 c22 90 78 199 125 242 30 28
37 20 28 -33 -9 -54 -8 -68 6 -72 13 -5 18 12 28 90 3 26 11 47 17 47 6 0 19
7 29 16 15 13 25 14 78 3 34 -6 61 -15 61 -20 0 -4 -21 -17 -46 -28 -25 -12
-72 -47 -103 -79 -32 -33 -69 -62 -83 -65 -17 -5 -30 -18 -37 -39 -6 -17 -29
-55 -51 -83 -44 -57 -47 -65 -25 -65 8 0 28 18 43 40 36 52 54 59 44 17 -9
-43 -9 -145 1 -180 8 -31 34 -32 30 -1 -7 51 -3 163 6 187 6 15 17 27 25 27
22 0 38 37 31 69 -5 23 1 35 40 74 49 48 134 97 169 97 12 0 30 -7 40 -15 28
-22 53 -18 71 9 14 21 20 22 58 15 55 -10 93 -25 129 -50 30 -22 59 -14 43 11
-8 12 -95 53 -137 64 -42 10 -34 23 22 36 28 7 53 16 56 21 12 20 -28 20 -101
0 -43 -12 -86 -19 -97 -15 -11 3 -31 1 -44 -6 -19 -11 -39 -10 -111 5 -49 10
-97 26 -109 37 -23 21 -64 24 -82 6z m357 -75 c12 -23 -4 -53 -29 -53 -23 0
-36 36 -20 55 17 20 37 19 49 -2z m-525 -409 c23 -9 20 -51 -4 -59 -11 -3 -24
-3 -30 0 -14 9 -12 52 3 58 6 3 13 6 14 6 1 1 8 -2 17 -5z m211 -184 c0 -18
-6 -26 -23 -28 -13 -2 -25 3 -28 12 -10 26 4 48 28 44 17 -2 23 -10 23 -28z"/>
<path d="M1421 1526 c-10 -11 -9 -21 3 -45 9 -16 16 -41 16 -55 0 -22 -7 -28
-56 -42 -51 -14 -57 -14 -73 0 -35 32 -91 7 -91 -42 0 -23 -57 -62 -121 -83
-44 -15 -56 -26 -42 -40 14 -14 93 11 145 46 20 14 39 25 41 25 2 0 -1 -18 -6
-40 -8 -29 -8 -43 0 -51 15 -15 33 -3 33 22 0 51 50 104 116 124 26 8 50 12
52 10 10 -9 -44 -79 -100 -130 -56 -50 -65 -55 -106 -53 -48 1 -62 -10 -62
-54 0 -34 39 -63 70 -53 12 4 28 21 35 39 8 18 31 44 52 59 45 32 90 78 123
129 16 25 33 38 47 38 25 0 43 27 43 65 0 20 -8 29 -33 40 -25 10 -37 24 -47
55 -16 48 -23 55 -39 36z m93 -125 c4 -5 3 -17 0 -26 -10 -24 -48 -15 -52 13
-3 18 1 22 22 22 14 0 27 -4 30 -9z m-214 -55 c0 -25 -15 -37 -37 -28 -14 4
-18 34 -6 45 3 4 15 7 25 7 12 0 18 -7 18 -24z"/>
<path d="M1310 990 c0 -53 4 -90 10 -90 6 0 10 37 10 90 0 53 -4 90 -10 90 -6
0 -10 -37 -10 -90z"/>
<path d="M1500 992 l0 -89 45 -1 c35 -2 46 2 55 17 15 29 12 77 -6 95 -18 19
-28 20 -55 6 -17 -10 -19 -7 -19 25 0 19 -4 35 -10 35 -6 0 -10 -36 -10 -88z
m88 -23 c3 -39 -15 -63 -41 -53 -21 8 -31 39 -23 70 5 20 12 25 34 22 23 -3
27 -8 30 -39z"/>
<path d="M2330 1060 c0 -5 7 -10 16 -10 8 0 12 5 9 10 -3 6 -10 10 -16 10 -5
0 -9 -4 -9 -10z"/>
<path d="M2015 1034 c-10 -24 -6 -93 6 -116 5 -10 20 -18 32 -17 l22 0 -22 16
c-32 22 -33 93 -2 93 11 0 17 5 14 10 -4 6 -10 8 -15 5 -5 -3 -13 2 -18 11 -8
15 -10 14 -17 -2z"/>
<path d="M1390 1020 c-11 -7 -7 -10 18 -10 25 0 32 -4 32 -20 0 -15 -7 -20
-29 -20 -35 0 -55 -22 -46 -50 6 -17 13 -20 51 -18 l44 3 0 51 c0 67 -27 92
-70 64z m50 -75 c0 -17 -29 -34 -47 -28 -31 11 -10 40 30 42 9 1 17 -6 17 -14z"/>
<path d="M1662 1014 c-26 -18 -30 -74 -6 -98 22 -23 71 -20 84 3 18 34 12 78
-12 95 -12 9 -27 16 -33 16 -6 0 -21 -7 -33 -16z m66 -46 c2 -29 -1 -39 -18
-48 -27 -14 -50 2 -50 35 0 42 11 56 39 53 22 -3 26 -8 29 -40z"/>
<path d="M1790 968 c0 -80 18 -92 22 -15 3 45 6 52 26 55 12 2 22 8 22 13 0
12 -7 11 -32 -2 -16 -9 -23 -8 -29 2 -5 9 -9 -12 -9 -53z"/>
<path d="M1900 1020 c-11 -7 -7 -10 18 -10 25 0 32 -4 32 -20 0 -16 -7 -20
-30 -20 -19 0 -33 -7 -40 -21 -17 -31 4 -50 51 -47 l39 3 0 51 c0 67 -27 92
-70 64z m53 -79 c-6 -23 -38 -34 -52 -17 -14 16 6 36 35 36 17 0 21 -5 17 -19z"/>
<path d="M2110 1010 c-43 -43 -12 -115 47 -108 54 6 67 94 17 117 -34 15 -41
14 -64 -9z m70 -20 c22 -41 -13 -90 -49 -70 -21 11 -27 43 -15 74 9 23 51 20
64 -4z"/>
<path d="M2240 968 c0 -80 18 -92 22 -15 3 45 6 52 26 55 12 2 22 8 22 13 0
13 -24 11 -38 -3 -10 -10 -15 -10 -22 2 -7 10 -10 -6 -10 -52z"/>
<path d="M2338 973 c-2 -32 -1 -62 4 -67 4 -6 8 20 8 57 0 37 -2 67 -4 67 -2
0 -6 -26 -8 -57z"/>
<path d="M2398 1024 c-14 -13 -9 -101 6 -113 7 -6 32 -10 55 -9 l41 1 0 58 c0
32 -4 61 -10 64 -6 4 -10 -11 -10 -39 0 -27 -6 -51 -16 -60 -32 -32 -52 -13
-56 53 -2 29 -6 49 -10 45z"/>
<path d="M2540 963 c0 -76 18 -84 22 -10 3 48 5 52 28 52 23 0 25 -4 28 -52 2
-29 7 -53 12 -53 5 0 10 24 12 53 3 48 5 52 28 52 23 0 25 -4 28 -52 4 -67 22
-70 22 -4 0 57 -21 86 -54 76 -12 -4 -25 -6 -31 -5 -5 0 -29 2 -52 3 l-43 3 0
-63z"/>
<path d="M1542 821 c-8 -4 -12 -19 -10 -32 5 -40 77 -37 78 3 0 11 -31 38 -43
38 -7 0 -18 -4 -25 -9z"/>
<path d="M2848 819 c-27 -15 -22 -47 7 -55 14 -3 32 -4 40 0 16 6 21 56 6 56
-5 0 -15 2 -23 5 -7 2 -21 0 -30 -6z"/>
<path d="M4758 819 c-27 -15 -22 -47 7 -55 14 -3 32 -4 40 0 16 6 21 56 6 56
-5 0 -15 2 -23 5 -7 2 -21 0 -30 -6z"/>
<path d="M3277 802 c-10 -10 -17 -26 -17 -35 0 -9 -9 -26 -20 -37 -24 -24 -26
-50 -5 -50 12 0 15 -16 15 -85 l0 -85 40 0 40 0 0 85 c0 85 0 85 26 85 22 0
25 4 22 28 -2 19 -9 28 -25 30 -13 2 -23 8 -23 13 0 8 14 13 32 10 11 -1 30
38 23 49 -11 18 -90 12 -108 -8z"/>
<path d="M1905 761 c-3 -10 -14 -26 -25 -36 -24 -21 -26 -45 -5 -45 12 0 15
-14 15 -63 0 -86 16 -107 81 -107 27 0 50 5 50 10 5 40 3 45 -23 48 -27 3 -28
6 -28 58 0 51 1 54 25 54 21 0 25 5 25 30 0 25 -4 30 -25 30 -18 0 -25 5 -25
20 0 28 -56 29 -65 1z"/>
<path d="M1338 725 c-22 -12 -28 -23 -28 -49 0 -36 15 -54 69 -81 47 -23 28
-42 -29 -27 l-41 10 3 -31 c3 -32 3 -32 65 -35 52 -2 66 1 83 18 41 41 22 99
-41 124 -30 12 -39 20 -31 28 7 7 19 7 42 0 28 -10 32 -9 39 11 5 12 5 26 1
31 -16 17 -104 17 -132 1z"/>
<path d="M1530 625 l0 -115 34 0 c24 0 35 5 38 18 3 14 2 178 -1 205 -1 4 -17
7 -36 7 l-35 0 0 -115z"/>
<path d="M1700 734 c-41 -17 -54 -79 -22 -107 10 -9 33 -22 50 -28 34 -12 44
-39 14 -39 -9 0 -32 4 -50 9 -33 10 -33 10 -30 -22 3 -32 3 -32 65 -35 52 -2
66 1 83 18 41 41 22 99 -41 124 -30 12 -39 20 -31 28 7 7 19 7 42 0 28 -10 32
-9 39 11 5 12 5 26 1 31 -11 11 -99 18 -120 10z"/>
<path d="M2114 731 c-37 -16 -54 -51 -54 -109 0 -46 4 -58 29 -83 25 -25 37
-29 84 -29 71 0 87 7 87 36 0 24 -2 24 -48 18 -39 -5 -52 -3 -67 12 -18 19
-17 19 53 22 l72 3 0 43 c0 32 -6 48 -24 65 -27 26 -97 37 -132 22z m70 -47
c28 -11 18 -34 -14 -34 -30 0 -43 23 -17 33 6 3 13 6 14 6 1 1 8 -2 17 -5z"/>
<path d="M2320 625 l0 -115 40 0 c38 0 40 1 34 25 -10 41 5 135 23 142 27 11
43 -26 43 -99 l0 -68 35 0 35 0 0 59 c0 69 13 111 34 111 23 0 28 -16 27 -78
-1 -82 4 -92 45 -92 l34 0 0 93 c0 98 -3 108 -37 126 -30 15 -63 14 -83 -4
-15 -13 -20 -13 -49 1 -35 17 -96 12 -105 -9 -3 -8 -8 -7 -16 6 -6 9 -22 17
-35 17 l-25 0 0 -115z"/>
<path d="M2837 733 c-4 -3 -7 -55 -7 -115 l0 -108 40 0 40 0 0 115 0 115 -33
0 c-19 0 -37 -3 -40 -7z"/>
<path d="M2967 733 c-4 -3 -7 -55 -7 -115 l0 -108 40 0 40 0 0 66 c0 73 12
104 39 104 25 0 31 -19 31 -101 l0 -69 35 0 35 0 0 94 c0 73 -4 98 -16 110
-25 25 -63 30 -99 13 -29 -14 -34 -14 -39 -1 -5 14 -47 20 -59 7z"/>
<path d="M3460 733 c-73 -29 -80 -175 -11 -213 25 -13 97 -13 122 0 42 23 63
109 38 163 -20 45 -96 70 -149 50z m78 -104 c2 -32 -2 -50 -13 -59 -24 -20
-45 5 -45 55 0 48 6 57 35 53 16 -2 21 -12 23 -49z"/>
<path d="M3670 625 l0 -115 40 0 39 0 3 72 c3 71 4 73 33 83 36 12 45 22 45
53 0 17 -6 22 -24 22 -14 0 -31 -7 -40 -15 -8 -8 -19 -15 -24 -15 -6 0 -12 7
-16 15 -3 8 -17 15 -31 15 l-25 0 0 -115z"/>
<path d="M3867 733 c-4 -3 -7 -55 -7 -115 l0 -108 40 0 39 0 3 76 c2 61 7 79
21 88 27 17 37 -8 37 -91 l0 -73 40 0 40 0 0 69 c0 81 6 101 30 101 22 0 30
-27 30 -107 l0 -63 35 0 35 0 0 95 c0 82 -3 98 -20 115 -24 24 -67 26 -98 4
-20 -14 -24 -14 -44 0 -28 20 -68 20 -94 1 -25 -19 -34 -19 -34 0 0 15 -40 21
-53 8z"/>
<path d="M4303 730 c-20 -8 -22 -12 -11 -34 9 -21 16 -24 37 -20 14 4 28 7 31
6 23 0 30 -4 30 -17 0 -11 -11 -15 -36 -15 -36 0 -73 -15 -86 -34 -14 -21 -8
-73 10 -89 22 -20 74 -22 103 -4 17 10 23 10 26 0 3 -7 18 -13 34 -13 l29 0 0
89 c0 114 -12 133 -91 137 -30 2 -64 0 -76 -6z m87 -139 c0 -17 -18 -31 -41
-31 -10 0 -12 33 -2 43 14 15 43 7 43 -12z"/>
<path d="M4548 720 c-51 -40 -32 -96 40 -121 59 -20 30 -48 -33 -30 l-36 10 3
-32 c3 -31 4 -32 60 -35 65 -3 95 9 108 44 15 39 -4 73 -56 95 -32 14 -43 24
-36 31 7 7 20 7 41 0 27 -10 32 -8 42 10 15 28 0 40 -58 45 -39 4 -53 1 -75
-17z"/>
<path d="M4747 733 c-4 -3 -7 -55 -7 -115 l0 -108 40 0 40 0 0 115 0 115 -33
0 c-19 0 -37 -3 -40 -7z"/>
<path d="M1566 401 c-4 -5 -2 -12 3 -15 5 -4 12 -2 15 3 4 5 2 12 -3 15 -5 4
-12 2 -15 -3z"/>
<path d="M2006 401 c-4 -5 -2 -12 3 -15 5 -4 12 -2 15 3 4 5 2 12 -3 15 -5 4
-12 2 -15 -3z"/>
<path d="M2676 403 c-3 -3 -6 -35 -6 -70 0 -49 3 -63 15 -63 11 0 15 11 15 41
0 33 3 40 18 37 12 -2 18 -14 20 -41 4 -49 22 -48 22 2 0 41 -20 67 -45 57
-10 -4 -15 1 -15 14 0 20 -13 33 -24 23z"/>
<path d="M3486 401 c-4 -5 -2 -12 3 -15 5 -4 12 -2 15 3 4 5 2 12 -3 15 -5 4
-12 2 -15 -3z"/>
<path d="M3750 341 c0 -77 14 -95 24 -31 4 26 12 40 21 40 9 0 17 -14 21 -40
8 -51 24 -52 24 -1 0 44 -19 66 -50 56 -16 -5 -20 -2 -20 14 0 11 -4 23 -10
26 -6 4 -10 -20 -10 -64z"/>
<path d="M4386 403 c-3 -3 -6 -35 -6 -70 0 -49 3 -63 15 -63 8 0 15 9 15 20 0
26 8 25 30 -2 10 -13 22 -20 26 -16 4 5 0 16 -9 26 -21 23 -21 36 -2 52 9 7
13 15 10 18 -3 3 -16 -5 -30 -18 l-25 -23 0 36 c0 35 -11 53 -24 40z"/>
<path d="M1310 345 c0 -49 3 -57 25 -67 19 -8 31 -8 50 0 22 10 25 18 25 67 0
70 -18 72 -22 3 -2 -42 -7 -54 -22 -56 -25 -5 -36 14 -36 66 0 23 -4 42 -10
42 -5 0 -10 -25 -10 -55z"/>
<path d="M2390 335 c0 -71 19 -92 21 -22 l1 42 15 -43 c8 -24 20 -41 26 -39 6
2 19 25 28 53 l17 49 1 -52 c1 -29 6 -53 11 -53 6 0 10 28 10 65 0 57 -2 65
-19 65 -14 0 -22 -12 -30 -45 -6 -25 -15 -45 -19 -45 -4 0 -13 20 -20 45 -7
28 -18 45 -27 45 -12 0 -15 -14 -15 -65z"/>
<path d="M3430 381 c0 -14 -6 -17 -25 -14 -32 7 -54 -34 -37 -71 8 -19 18 -24
46 -23 l36 1 0 63 c0 35 -4 63 -10 63 -5 0 -10 -8 -10 -19z m-5 -61 c0 -16 -6
-26 -17 -28 -14 -3 -18 3 -18 28 0 25 4 31 18 28 11 -2 17 -12 17 -28z"/>
<path d="M3937 383 c-46 -52 -7 -125 57 -109 21 5 26 12 26 36 0 25 -4 30 -25
30 -14 0 -25 -4 -25 -10 0 -5 7 -10 15 -10 20 0 19 -19 0 -26 -35 -14 -61 46
-33 74 7 7 22 12 35 12 13 0 23 5 23 10 0 17 -56 11 -73 -7z"/>
<path d="M4330 390 c0 -5 5 -10 10 -10 6 0 10 5 10 10 0 6 -4 10 -10 10 -5 0
-10 -4 -10 -10z"/>
<path d="M2066 374 c-8 -20 -8 -68 0 -88 3 -9 15 -16 25 -16 23 0 25 15 4 24
-18 7 -16 56 2 56 19 0 16 13 -6 27 -16 10 -20 9 -25 -3z"/>
<path d="M1450 318 c0 -57 17 -65 22 -11 2 27 8 39 21 41 14 3 17 -4 17 -37 0
-23 5 -41 11 -41 6 0 9 19 7 48 l-3 47 -37 0 -38 1 0 -48z"/>
<path d="M1560 320 c0 -38 4 -50 15 -50 11 0 15 12 15 50 0 38 -4 50 -15 50
-11 0 -15 -12 -15 -50z"/>
<path d="M1610 363 c0 -22 35 -93 45 -93 13 0 49 89 41 98 -10 9 -24 -9 -31
-40 l-7 -33 -15 38 c-14 32 -33 50 -33 30z"/>
<path d="M1732 358 c-7 -7 -12 -24 -12 -38 0 -14 5 -31 12 -38 14 -14 68 -16
68 -2 0 6 -11 10 -24 10 -37 0 -41 17 -6 25 20 4 30 13 30 25 0 28 -46 40 -68
18z m48 -18 c0 -5 -9 -10 -21 -10 -11 0 -17 5 -14 10 3 6 13 10 21 10 8 0 14
-4 14 -10z"/>
<path d="M1830 318 c0 -26 5 -48 10 -48 6 0 10 13 10 30 0 19 7 34 20 42 28
18 25 25 -10 25 -29 0 -30 -2 -30 -49z"/>
<path d="M1917 363 c-14 -13 -6 -42 13 -48 11 -3 20 -11 20 -16 0 -5 -9 -9
-20 -9 -11 0 -20 -5 -20 -11 0 -6 12 -9 28 -7 35 4 45 46 13 55 -27 7 -27 23
-1 23 11 0 20 5 20 10 0 11 -43 14 -53 3z"/>
<path d="M2000 320 c0 -38 4 -50 15 -50 11 0 15 12 15 50 0 38 -4 50 -15 50
-11 0 -15 -12 -15 -50z"/>
<path d="M2145 361 c-4 -7 4 -11 19 -11 36 0 32 -16 -5 -24 -25 -5 -30 -10
-27 -28 2 -19 9 -23 41 -23 l38 -1 -3 46 c-3 40 -6 45 -30 48 -14 2 -29 -2
-33 -7z m45 -56 c0 -8 -6 -15 -14 -15 -17 0 -28 14 -19 24 12 12 33 6 33 -9z"/>
<path d="M2253 363 c-20 -8 -15 -26 15 -50 l27 -22 -27 -1 c-16 0 -28 -5 -28
-11 0 -6 14 -9 33 -7 44 4 50 38 10 58 l-28 14 28 4 c15 2 25 8 22 13 -7 10
-32 11 -52 2z"/>
<path d="M2550 331 c0 -45 13 -58 58 -58 32 0 32 1 32 49 0 26 -4 48 -10 48
-5 0 -10 -11 -10 -24 0 -35 -10 -56 -26 -56 -10 0 -14 12 -14 40 0 29 -4 40
-15 40 -11 0 -15 -11 -15 -39z"/>
<path d="M2805 360 c-4 -6 5 -10 19 -10 35 0 33 -18 -1 -22 -22 -2 -28 -8 -28
-28 0 -22 5 -25 38 -27 l37 -1 0 43 c0 30 -5 45 -16 49 -23 9 -42 7 -49 -4z
m40 -50 c3 -6 -1 -13 -10 -16 -19 -8 -30 0 -20 15 8 14 22 14 30 1z"/>
<path d="M2900 318 c0 -36 4 -48 15 -48 11 0 15 11 15 40 0 27 4 40 14 40 15
0 26 -32 21 -61 -2 -11 2 -19 10 -19 9 0 15 14 17 38 2 25 8 37 18 37 10 0 16
-12 18 -37 5 -56 24 -46 20 10 l-3 47 -72 1 -73 0 0 -48z"/>
<path d="M3080 318 c0 -58 16 -63 25 -8 4 25 12 40 21 40 10 0 14 -12 14 -40
0 -29 4 -40 15 -40 11 0 15 11 15 40 0 29 4 40 15 40 11 0 15 -11 15 -40 0
-29 4 -40 15 -40 19 0 21 75 3 87 -7 4 -41 8 -75 9 l-63 0 0 -48z"/>
<path d="M3270 360 c0 -5 9 -10 20 -10 11 0 20 -4 20 -10 0 -5 -8 -10 -19 -10
-24 0 -43 -23 -35 -43 4 -11 17 -15 45 -14 38 1 39 2 39 37 0 20 -5 41 -12 48
-15 15 -58 16 -58 2z m40 -55 c0 -8 -7 -15 -15 -15 -16 0 -20 12 -8 23 11 12
23 8 23 -8z"/>
<path d="M3480 320 c0 -38 4 -50 15 -50 11 0 15 12 15 50 0 38 -4 50 -15 50
-11 0 -15 -12 -15 -50z"/>
<path d="M3530 361 c0 -5 7 -25 15 -44 8 -20 15 -43 15 -52 0 -8 -7 -15 -15
-15 -8 0 -15 -5 -15 -11 0 -6 8 -9 18 -7 16 3 52 65 67 117 11 38 -17 20 -30
-20 l-12 -34 -12 38 c-11 33 -31 51 -31 28z"/>
<path d="M3650 360 c0 -5 9 -10 19 -10 31 0 34 -18 4 -22 -22 -2 -28 -8 -28
-28 0 -22 4 -25 38 -26 36 -1 37 0 37 35 0 21 -5 42 -12 49 -15 15 -58 16 -58
2z m45 -50 c3 -6 -1 -13 -10 -16 -19 -8 -30 0 -20 15 8 14 22 14 30 1z"/>
<path d="M4050 322 c0 -29 5 -52 10 -52 6 0 10 13 10 29 0 19 8 35 22 45 12 9
19 19 15 22 -4 4 -13 2 -20 -4 -10 -9 -17 -8 -25 0 -9 9 -12 0 -12 -40z"/>
<path d="M4142 358 c-7 -7 -12 -24 -12 -38 0 -14 5 -31 12 -38 15 -15 54 -16
63 -2 4 6 -7 10 -24 10 -40 0 -40 16 -1 24 17 3 30 11 30 19 0 18 -21 37 -40
37 -9 0 -21 -5 -28 -12z m48 -18 c0 -5 -9 -10 -20 -10 -11 0 -20 5 -20 10 0 6
9 10 20 10 11 0 20 -4 20 -10z"/>
<path d="M4239 354 c-11 -14 -10 -18 6 -30 10 -8 22 -14 27 -14 4 0 8 -4 8
-10 0 -5 -12 -10 -27 -10 -19 0 -24 -3 -16 -11 6 -6 21 -9 34 -7 32 4 39 44
10 53 -27 8 -27 25 0 25 11 0 17 5 14 10 -9 15 -41 12 -56 -6z"/>
<path d="M4330 320 c0 -27 5 -50 10 -50 6 0 10 23 10 50 0 28 -4 50 -10 50 -5
0 -10 -22 -10 -50z"/>
</g>
</svg>
